<svg id="Layer_1" data-name="Layer 1" xmlns="http://www.w3.org/2000/svg" viewBox="0 0 56.05 34.2"><defs><style>.cls-1{fill:#fff;}</style></defs><title>RSP White</title><path class="cls-1" d="M225.22,432.74a6.62,6.62,0,0,0-6.63,4.18v-3.67h-6.83V446.8a6.1,6.1,0,0,0-2.53-2.89c-1.53-.92-3.31-1.33-7.65-1.94-3.31-.41-4.23-0.92-4.23-2.34s1.43-2.24,3.72-2.24c2.65,0,4.18,1.07,4.89,3.42l5.4-1.48c-1.84-4.69-4.69-6.58-10-6.58-4.36,0-7.67,1.46-9.37,4v-3.9c-0.51-.05-1-0.1-1.33-0.1-2.65,0-4.38,1.68-5.45,5.25v-4.69h-6.78v25.13h7.19V448.14c0-5.09,1.73-7.75,5.14-8a8.67,8.67,0,0,0,0,.87,7.13,7.13,0,0,0,3.92,6.52,38.8,38.8,0,0,0,8.51,1.89c2,0.31,2.8.87,2.8,2,0,1.48-1.78,2.5-4.43,2.5-3.11,0-4.89-1.12-5.51-3.36l-6.27.87a7.91,7.91,0,0,0,2.45,4.44c2.19,2.09,4.84,3,8.92,3,5.37,0,9.17-2,10.64-5.35V466.9H219V455.63a6.32,6.32,0,0,0,6.07,3.26c6,0,9.48-4.95,9.48-13.2C234.5,437.59,231,432.74,225.22,432.74Zm0.56,19.07a3.4,3.4,0,0,1-2.91,1.89,4.08,4.08,0,0,1-3.21-1.84c-0.61-.92-0.71-1.73-0.71-4.49v-3.72c0-3.62,1.48-5.76,3.93-5.76,2.65,0,3.92,2.45,3.92,7.7C226.8,448.6,226.5,450.69,225.78,451.81Z" transform="translate(-178.45 -432.69)"/></svg>