<?xml version="1.0" encoding="UTF-8"?><svg id="uuid-353396af-ed70-4a20-966f-57cdfe120573" xmlns="http://www.w3.org/2000/svg" xmlns:xlink="http://www.w3.org/1999/xlink" viewBox="0 0 22.53 22.53"><defs><clipPath id="uuid-5a0a8b16-58c5-47d7-b215-a9e30f1fc032"><rect width="22.53" height="22.53" style="fill:none;"/></clipPath></defs><g id="uuid-0d0ba508-0aa0-4589-bd3d-0c5baddb7e24"><g style="clip-path:url(#uuid-5a0a8b16-58c5-47d7-b215-a9e30f1fc032);"><path d="M.44,22.09H22.1m-19.81,0V.44H15.49V22.09m.29-18.05h4.47V21.47m-12.58,.35v-1.97h2.43v1.97M4.26,2.76H13.51m4.28,5.13v-1.12m0,4.9v-1.12m0,4.9v-1.12m0,4.9v-1.12M4.26,4.95H13.51M4.26,7.14H13.51m-9.26,2.19H13.51m-9.26,2.19H13.51m-9.26,2.19H13.51m-9.26,2.19H13.51m-9.26,2.19H13.51m-9.31,2.22h1.71m5.89,0h1.71" style="fill:none; stroke:#fff; stroke-linecap:round; stroke-linejoin:round; stroke-width:.87px;"/></g></g></svg>