<?xml version="1.0" encoding="UTF-8"?><svg id="uuid-ae26adc8-a6a0-4bd9-9c9e-a11cc71d224a" xmlns="http://www.w3.org/2000/svg" xmlns:xlink="http://www.w3.org/1999/xlink" viewBox="0 0 22.86 19.58"><defs><clipPath id="uuid-b88ca3f9-3ed1-4e25-97ad-c9b201735450"><rect width="22.86" height="19.58" style="fill:none;"/></clipPath></defs><g id="uuid-940f39b5-c294-408c-9e24-0a1ad9656ac3"><g style="clip-path:url(#uuid-b88ca3f9-3ed1-4e25-97ad-c9b201735450);"><path d="M7,4.69L11.43,.44l4.42,4.26m-2.4,14.45c.01-.99,.03-3.24,.03-4.22s-.92-1.72-2.05-1.72-2.05,.77-2.05,1.72,.02,3.23,.03,4.22m-8.97-.21v-7.86m8.83,8.07H.44m21.99-.21v-7.86m-21.99,.05l6.19-1.82m15.8,1.82l-6.19-1.82m-2.57,9.84h8.75M7.02,4.69v14.45M15.84,4.69v14.45M11.43,4.95c1.22,0,2.22,.99,2.22,2.22s-.99,2.22-2.22,2.22-2.22-.99-2.22-2.22,.99-2.22,2.22-2.22h0Zm0,1.41v.81l.72,.44M2.65,13.55v5.59m2.19-5.59v5.59m13.19-5.59v5.59m2.19-5.59v5.59" style="fill:none; stroke:#fff; stroke-linecap:round; stroke-linejoin:round; stroke-width:.87px;"/></g></g></svg>