<?xml version="1.0" encoding="UTF-8"?><svg id="uuid-d9a11c9a-5523-4307-80f8-ce214600447f" xmlns="http://www.w3.org/2000/svg" xmlns:xlink="http://www.w3.org/1999/xlink" viewBox="0 0 23.4 22.8"><defs><clipPath id="uuid-2e36a40e-a470-4499-ab9a-0dcab637e5c0"><rect width="23.4" height="22.8" style="fill:none;"/></clipPath></defs><g id="uuid-9414fd06-baf2-43f0-9fa2-c22ebd89e2dd"><g style="clip-path:url(#uuid-2e36a40e-a470-4499-ab9a-0dcab637e5c0);"><path d="M22.96,5.42L11.7,.44,.44,5.42m.5,3.25H22.51m-5.76,1.37c0,.5-.36,.91-.79,.91s-.79-.41-.79-.91c0-1.25,.79-1.38,1.54-1.38h2.04c.75,0,1.54,.13,1.54,1.38,0,.5-.36,.91-.79,.91s-.79-.41-.79-.91m.15,.79c0,2.68,.35,5.37,.35,8.05m-2.65-8.05l-.35,8.05m-5.67-8.85c0,.5-.36,.91-.79,.91s-.79-.41-.79-.91c0-1.25,.79-1.38,1.54-1.38h2.04c.75,0,1.54,.13,1.54,1.38,0,.5-.36,.91-.79,.91s-.79-.41-.79-.91m.15,.79c0,2.68,.35,5.37,.35,8.05m-2.65-8.05l-.35,8.05M4.31,10.04c0,.5-.36,.91-.79,.91s-.79-.41-.79-.91c0-1.25,.79-1.38,1.54-1.38h2.04c.75,0,1.54,.13,1.54,1.38,0,.5-.36,.91-.79,.91s-.79-.41-.79-.91m.15,.79c0,2.68,.35,5.37,.35,8.05m-2.65-8.05l-.35,8.05m-3.13,3.48H22.83M1.77,20.63H21.68m-18.88-1.74H20.65m1.79-11.87L11.73,2.28,1.01,7.02H22.44Z" style="fill:none; stroke:#fff; stroke-linecap:round; stroke-linejoin:round; stroke-width:.87px;"/></g></g></svg>