<?xml version="1.0" encoding="UTF-8"?><svg id="uuid-101070e5-f836-4614-b60a-31625ffae7ea" xmlns="http://www.w3.org/2000/svg" xmlns:xlink="http://www.w3.org/1999/xlink" viewBox="0 0 18.1 26.23"><defs><clipPath id="uuid-8a057dcb-2348-4657-adda-99b72781f677"><rect width="18.1" height="26.23" style="fill:none;"/></clipPath></defs><g id="uuid-5b3a7ead-484b-4608-a7dd-fc05f4c2d213"><g style="clip-path:url(#uuid-8a057dcb-2348-4657-adda-99b72781f677);"><path d="M9.81,18.83h2.18v-4.29h-2.18v4.29h0Zm-3.69-6.54h2.18V8h-2.18v4.29h0Zm-3.69,0h2.18V8H2.42v4.29h0Zm0,6.54h2.18v-4.29H2.42v4.29h0Zm0,6.15h2.18v-4.29H2.42v4.29h0Zm7.38-12.69h2.18V8h-2.18v4.29h0Zm3.69,6.54h2.18v-4.29h-2.18v4.29h0Zm0,6.15h2.18v-4.29h-2.18v4.29h0Zm0-12.69h2.18V8h-2.18v4.29h0Zm2.18,0h-2.18V8h2.18v4.29h0Zm0,6.54h-2.18v-4.29h2.18v4.29h0Zm0,6.15h-2.18v-4.29h2.18v4.29h0Zm-3.69-12.69h-2.18V8h2.18v4.29h0Zm0,6.54h-2.18v-4.29h2.18v4.29h0Zm-3.69-6.54h-2.18V8h2.18v4.29h0Zm0,6.54h-2.18v-4.29h2.18v4.29h0Zm-3.69-6.54H2.42V8h2.18v4.29h0Zm0,6.54H2.42v-4.29h2.18v4.29h0Zm0,6.15H2.42v-4.29h2.18v4.29h0ZM11.06,5.78c-.52,.57-1.27,.92-2.11,.92s-1.58-.36-2.11-.92H.24V25.99H7.16v-5.37h4.04v5.37h6.66V5.78h-6.8Zm-.15-2.19c0,.1-.08,.19-.19,.19h-1.01v1.01c0,.1-.08,.19-.19,.19h-.95c-.1,0-.19-.08-.19-.19v-1.01h-1.01c-.1,0-.19-.08-.19-.19v-.95c0-.1,.08-.19,.19-.19h1.01V1.44c0-.1,.08-.19,.19-.19h.95c.1,0,.19,.08,.19,.19v1.01h1.01c.1,0,.19,.08,.19,.19v.95h0ZM9.05,.24c-1.59,0-2.88,1.29-2.88,2.88s1.29,2.88,2.88,2.88,2.88-1.29,2.88-2.88S10.64,.24,9.05,.24h0Z" style="fill:none; stroke:#fff; stroke-linecap:round; stroke-linejoin:round; stroke-width:.48px;"/></g></g></svg>