<?xml version="1.0" encoding="UTF-8"?><svg id="uuid-01d76f49-5fe4-4876-9f67-bb7d711658ca" xmlns="http://www.w3.org/2000/svg" xmlns:xlink="http://www.w3.org/1999/xlink" viewBox="0 0 23.08 22.38"><defs><clipPath id="uuid-c46df087-78ff-41e6-8b74-dbfee3253e3a"><rect width="23.08" height="22.38" style="fill:none;"/></clipPath></defs><g id="uuid-f9463281-3204-4bd3-a6a8-fd19da664dc5"><g style="clip-path:url(#uuid-c46df087-78ff-41e6-8b74-dbfee3253e3a);"><path d="M1.72,18.46H21.17M1.05,20.2H22.03M.44,21.94H22.64m-.16-17.29L11.54,.44,.6,4.65v1.58H22.48v-1.58h0ZM3.99,8.24l-.18,10.22m2.83-10.22c0,3.41,.18,6.81,.18,10.22m9.62-10.22l-.18,10.22m2.83-10.22c0,3.41,.18,6.81,.18,10.22m-1.89-13.74l-5.83-2.25-5.83,2.25m-2.58,1.81v1.53H7.5v-1.84m8.07,.3v1.53h4.38v-1.84" style="fill:none; stroke:#fff; stroke-linecap:round; stroke-linejoin:round; stroke-width:.87px;"/><text transform="translate(8.89 15.42)" style="fill:#fff; font-family:MyriadPro-Bold, &apos;Myriad Pro&apos;; font-size:9.52px;"><tspan x="0" y="0">£</tspan></text></g></g></svg>