<?xml version="1.0" encoding="UTF-8"?><svg id="uuid-6604c730-4f22-40ad-aa84-0bbf8a0ab81d" xmlns="http://www.w3.org/2000/svg" xmlns:xlink="http://www.w3.org/1999/xlink" viewBox="0 0 23.3 23.12"><defs><clipPath id="uuid-7e10dd02-51ce-4888-8632-4718c0211f01"><rect width="23.3" height="23.12" style="fill:none;"/></clipPath></defs><g id="uuid-ef161f60-0e6b-4017-8192-3e68e762ac0c"><g style="clip-path:url(#uuid-7e10dd02-51ce-4888-8632-4718c0211f01);"><path d="M.44,12.57H11.26V4.77l3.69,2.02v-2.17l3.96,2.17v-2.17l3.96,2.17c0,4.48,0,11.42,0,15.9H.44V12.57H.44ZM4.31,2.06l.29,10.51H1.75l.29-10.51m4.65,0l-.29,10.51h2.85l-.29-10.51M2.63,15.2h6.41v1.44H2.63v-1.44h0Zm0,3.17h6.41v1.44H2.63v-1.44h0Zm11.32,4.32v-4.32h6.47v4.32M11.26,12.57v10.12m7.51-7.49h1.65v1.44h-1.65v-1.44h0Zm0-3.07h1.65v1.44h-1.65v-1.44h0Zm0-3.07h1.65v1.44h-1.65v-1.44h0ZM1.51,.44h3.33V1.88H1.51V.44h0ZM6.16,.44h3.33V1.88h-3.33V.44h0Z" style="fill:none; stroke:#fff; stroke-linecap:round; stroke-linejoin:round; stroke-width:.87px;"/></g></g></svg>