<?xml version="1.0" encoding="UTF-8"?><svg id="uuid-b44c57d8-a565-45f4-a812-059bd0287869" xmlns="http://www.w3.org/2000/svg" xmlns:xlink="http://www.w3.org/1999/xlink" viewBox="0 0 27.36 21.03"><defs><clipPath id="uuid-489e64b0-9c25-44cb-8d45-0904c430ac00"><rect width="27.36" height="21.03" style="fill:none;"/></clipPath></defs><g id="uuid-f3a52463-deee-47bb-b7e2-a053b29c77d5"><g style="clip-path:url(#uuid-489e64b0-9c25-44cb-8d45-0904c430ac00);"><polygon points="3.16 14.12 .13 15.82 3.16 17.53 6.2 15.82 3.16 14.12 3.16 14.12" style="fill:#fff;"/><polygon points="3.3 21.03 6.33 19.36 6.33 16.09 3.3 17.76 3.3 21.03 3.3 21.03" style="fill:#fff;"/><polygon points="0 19.36 3.03 21.03 3.03 17.76 0 16.09 0 19.36 0 19.36" style="fill:#fff;"/><polygon points="13.68 14.07 10.65 15.78 13.68 17.49 16.71 15.78 13.68 14.07 13.68 14.07" style="fill:#fff;"/><polygon points="13.81 20.98 16.84 19.31 16.84 16.04 13.81 17.72 13.81 20.98 13.81 20.98" style="fill:#fff;"/><polygon points="10.52 19.31 13.55 20.98 13.55 17.72 10.52 16.04 10.52 19.31 10.52 19.31" style="fill:#fff;"/><polygon points="24.2 14.03 21.16 15.74 24.2 17.44 27.23 15.74 24.2 14.03 24.2 14.03" style="fill:#fff;"/><polygon points="24.33 17.67 24.33 20.94 27.36 19.27 27.36 16 24.33 17.67 24.33 17.67" style="fill:#fff;"/><polygon points="21.03 19.27 24.06 20.94 24.06 17.67 21.03 16 21.03 19.27 21.03 19.27" style="fill:#fff;"/><path d="M13.68,7.77c-1.16,0-2.1-.94-2.1-2.1s.94-2.1,2.1-2.1,2.1,.94,2.1,2.1-.94,2.1-2.1,2.1h0Zm5.6-3.23l-.4-1.24c-.05-.16-.23-.25-.39-.2l-.88,.29c-.15-.26-.33-.51-.54-.74l.55-.75c.1-.14,.07-.33-.07-.43l-1.06-.77c-.14-.1-.33-.07-.43,.07l-.54,.75c-.28-.12-.57-.22-.87-.28V.31c0-.17-.14-.31-.31-.31h-1.31c-.17,0-.31,.14-.31,.31v.93c-.3,.07-.59,.16-.87,.28l-.54-.75c-.1-.14-.29-.17-.43-.07l-1.06,.77c-.14,.1-.17,.29-.07,.43l.55,.75c-.2,.23-.38,.47-.54,.74l-.88-.29c-.16-.05-.34,.04-.39,.2l-.4,1.24c-.05,.16,.04,.34,.2,.39l.88,.29c-.01,.15-.02,.3-.02,.46s0,.31,.02,.46l-.88,.29c-.16,.05-.25,.23-.2,.39l.4,1.24c.05,.16,.23,.25,.39,.2l.88-.29c.15,.26,.33,.51,.54,.74l-.55,.75c-.1,.14-.07,.33,.07,.43l1.06,.77c.14,.1,.33,.07,.43-.07l.54-.75c.28,.12,.57,.22,.87,.28v.93c0,.17,.14,.31,.31,.31h1.31c.17,0,.31-.14,.31-.31v-.93c.3-.07,.59-.16,.87-.28l.54,.75c.1,.14,.29,.17,.43,.07l1.06-.77c.14-.1,.17-.29,.07-.43l-.55-.75c.2-.23,.38-.47,.54-.74l.88,.29c.16,.05,.34-.04,.39-.2l.4-1.24c.05-.16-.04-.34-.2-.39l-.88-.29c.01-.15,.02-.3,.02-.46s0-.31-.02-.46l.88-.29c.16-.05,.25-.23,.2-.39h0Z" style="fill:#fff;"/><polygon points="14.05 12.18 13.31 12.18 13.31 13.16 14.05 13.16 14.05 12.18 14.05 12.18" style="fill:#fff;"/><path d="M2.66,5.67v7.48h.75V6.05h3.76v-.75H3.03c-.21,0-.37,.17-.37,.37h0Z" style="fill:#fff;"/><path d="M23.96,13.16h.75V5.67c0-.21-.17-.37-.37-.37h-4.13v.75h3.76v7.11h0Z" style="fill:#fff;"/></g></g></svg>