<?xml version="1.0" encoding="UTF-8"?><svg id="uuid-c511db96-8126-43d5-a45e-6fcad94a72d1" xmlns="http://www.w3.org/2000/svg" xmlns:xlink="http://www.w3.org/1999/xlink" viewBox="0 0 17.58 21.55"><defs><clipPath id="uuid-598091ee-7202-4cb6-873a-9b739d95367a"><rect width="17.58" height="21.55" style="fill:none;"/></clipPath></defs><g id="uuid-7242a60e-ba2b-4c54-8c4b-42114bc6415d"><g style="clip-path:url(#uuid-598091ee-7202-4cb6-873a-9b739d95367a);"><path d="M0,8.86c0-.24,.08-.44,.25-.61,.17-.17,.37-.25,.61-.25H3.71v1.05H1.05v9.25H3.71v1.92c0,.33,.09,.62,.27,.87h-1.89v.47H1.05v-.47h-.18c-.24,0-.44-.08-.61-.25-.17-.17-.25-.37-.25-.61V8.86H0Z" style="fill:#fff; fill-rule:evenodd;"/><polygon points="3.71 16.03 3.71 17.07 2.26 17.07 2.26 16.03 3.71 16.03 3.71 16.03" style="fill:#fff; fill-rule:evenodd;"/><polygon points="3.71 14.11 3.71 15.15 2.26 15.15 2.26 14.11 3.71 14.11 3.71 14.11" style="fill:#fff; fill-rule:evenodd;"/><polygon points="3.71 12.19 3.71 13.23 2.26 13.23 2.26 12.19 3.71 12.19 3.71 12.19" style="fill:#fff; fill-rule:evenodd;"/><polygon points="3.71 10.27 3.71 11.32 2.26 11.32 2.26 10.27 3.71 10.27 3.71 10.27" style="fill:#fff; fill-rule:evenodd;"/><path d="M13.2,4.29c0-.41-.14-.77-.41-1.07-.02-.02-.04-.05-.06-.07-.2-.21-.44-.34-.7-.42-.14-.04-.29-.05-.44-.05-.39,0-.72,.12-1.01,.35-.14-.24-.31-.47-.52-.68-.14-.14-.29-.27-.44-.38-.52-.36-1.11-.55-1.78-.55-.87,0-1.61,.31-2.23,.92-.26,.27-.47,.55-.62,.87-.2,.41-.3,.87-.3,1.36,0,.02,0,.05,0,.07-.52,.04-.99,.21-1.39,.53-.09,.07-.18,.15-.27,.24h0c-.52,.52-.77,1.14-.77,1.87v.07H.81v-.07c0-1.12,.4-2.09,1.19-2.88,.41-.41,.87-.72,1.37-.92,.19-.81,.59-1.52,1.22-2.15C5.48,.45,6.56,0,7.83,0c1.24,0,2.31,.43,3.19,1.29,.18-.03,.37-.05,.57-.05,.84,0,1.56,.3,2.15,.89,.44,.44,.71,.95,.83,1.52,.36,.19,.7,.44,1.01,.75,.8,.79,1.19,1.75,1.19,2.88v.07h-1.43v-.07c0-.73-.26-1.35-.77-1.87h0s-.07-.07-.1-.1c-.38-.35-.81-.56-1.3-.64,.03-.12,.04-.25,.04-.39h0Z" style="fill:#fff; fill-rule:evenodd;"/><path d="M12.98,6.33c.17,.17,.25,.37,.25,.61v13.27c0,.24-.08,.44-.25,.61-.17,.17-.38,.25-.62,.25h-.19v.47h-1.04v-.47H6.43v.47h-1.04v-.47h-.18c-.24,0-.44-.08-.61-.25-.17-.17-.25-.37-.25-.61V6.94c0-.24,.08-.44,.25-.61,.17-.17,.37-.25,.61-.25h7.16c.24,0,.45,.08,.62,.25h0Zm-.8,.8h0s-6.79,0-6.79,0v11.17h6.79s0-.02,0-.02V7.13h0Z" style="fill:#fff; fill-rule:evenodd;"/><polygon points="10.98 9.4 6.6 9.4 6.6 8.35 10.98 8.35 10.98 9.4 10.98 9.4" style="fill:#fff; fill-rule:evenodd;"/><polygon points="10.98 11.32 6.6 11.32 6.6 10.27 10.98 10.27 10.98 11.32 10.98 11.32" style="fill:#fff; fill-rule:evenodd;"/><polygon points="10.98 13.23 6.6 13.23 6.6 12.19 10.98 12.19 10.98 13.23 10.98 13.23" style="fill:#fff; fill-rule:evenodd;"/><polygon points="10.98 15.15 6.6 15.15 6.6 14.11 10.98 14.11 10.98 15.15 10.98 15.15" style="fill:#fff; fill-rule:evenodd;"/><polygon points="10.98 17.07 6.6 17.07 6.6 16.03 10.98 16.03 10.98 17.07 10.98 17.07" style="fill:#fff; fill-rule:evenodd;"/><path d="M13.87,17.07v-1.05h1.45v1.05h-1.45Z" style="fill:#fff; fill-rule:evenodd;"/><path d="M13.87,15.15v-1.04h1.45v1.04h-1.45Z" style="fill:#fff; fill-rule:evenodd;"/><path d="M15.32,13.23h-1.45v-1.04h1.45v1.04h0Z" style="fill:#fff; fill-rule:evenodd;"/><path d="M15.32,10.27v1.05h-1.45v-1.05h1.45Z" style="fill:#fff; fill-rule:evenodd;"/><path d="M13.87,7.99h2.84c.24,0,.45,.08,.62,.25,.17,.17,.25,.37,.25,.61v11.36c0,.24-.08,.44-.25,.61-.17,.17-.38,.25-.62,.25h-.19v.47h-1.04v-.47h-1.88c.18-.25,.27-.54,.27-.87v-1.92h2.66V9.04h-2.66v-1.05h0Z" style="fill:#fff; fill-rule:evenodd;"/></g></g></svg>