<?xml version="1.0" encoding="UTF-8"?>
<svg id="Layer_2" data-name="Layer 2" xmlns="http://www.w3.org/2000/svg" viewBox="0 0 205.92 48.24">
  <defs>
    <style>
      .cls-1 {
        fill: #e92a49;
      }

      .cls-2 {
        fill: #64686e;
      }
    </style>
  </defs>
  <g id="Layer_1-2" data-name="Layer 1">
    <path class="cls-2" d="M49.37,11.95c-.32,4.14-3.19,6.82-7.12,6.82-5.13,0-7.82-3.91-7.82-9.02S36.79,.26,42.17,.26c4.36,0,6.85,2.73,7.2,7.21l-4.88,.26c.05-1.52-.5-3.43-2.27-3.43-2.32,0-2.42,3.75-2.42,5.45,0,1.81,.1,4.88,2.47,4.88,1.62,0,2.24-1.49,2.32-2.99l4.78,.31"/>
    <path class="cls-2" d="M65.07,11.92c0,4.06-3.11,6.84-7,6.84s-7-2.78-7-6.84c0-4.3,3.01-7.08,7-7.08s7,2.78,7,7.08m-8.72-.18c0,3.59,.82,3.85,1.72,3.85s1.72-.26,1.72-3.85c0-1.28-.03-3.62-1.72-3.62s-1.72,2.33-1.72,3.62Z"/>
    <path class="cls-2" d="M71.47,5.11v1.89h.05c.6-1.52,2.07-2.15,3.61-2.15,1.2,0,2.57,.37,3.31,1.39,.8,1.1,.8,2.62,.8,4.01v8.26h-4.93V10.38c0-.81,0-1.94-1.07-1.94-1.37,0-1.49,1.23-1.49,2.33v7.73h-4.93V5.11h4.66"/>
    <path class="cls-2" d="M84.82,14.15c.27,1.29,1.64,1.44,2.72,1.44,.5,0,1.89-.05,1.89-.84,0-.68-1.69-.81-2.14-.86-2.67-.39-5.83-.94-5.83-4.51,0-1.52,.77-2.73,1.97-3.51,1.25-.81,2.67-1.02,4.09-1.02,2.39,0,4.91,.97,5.75,3.49l-3.76,.76c-.37-.92-1.35-1.18-2.22-1.18-.4,0-1.59,.13-1.59,.71,0,.42,.42,.6,.75,.68,.55,.16,1.54,.23,2.14,.31,1.15,.16,2.44,.34,3.46,1,1.17,.79,1.79,1.97,1.79,3.41,0,3.7-3.71,4.75-6.58,4.75s-5.46-.97-6.4-4.06l3.96-.55"/>
    <path class="cls-2" d="M103.01,18.5v-2.2h-.05c-.52,1.73-2.22,2.46-3.86,2.46-1.05,0-2.07-.26-2.84-1.02-.9-.94-1-2.12-1-3.38V5.11h4.93V13.21c0,.86-.02,1.78,1.1,1.78,.5,0,.97-.29,1.2-.76,.22-.45,.25-.92,.25-1.42V5.11h4.93v13.39h-4.66"/>
    <rect class="cls-2" x="110.73" y=".52" width="4.93" height="17.98"/>
    <path class="cls-2" d="M117.23,8.51v-3.41h2.07l.37-4.27,4.28-.16V5.11h2.54v3.41h-2.49v4.61c0,.97-.1,1.73,1.07,1.73,.47,0,.95-.1,1.42-.24v3.75l-2.91,.39c-1.32,.18-2.59-.26-3.56-1.36-.97-1.1-.95-2.39-.95-3.83v-5.06h-1.84"/>
    <path class="cls-2" d="M133.55,3.82h-4.93V.26h4.93V3.82Zm0,14.68h-4.93V5.1h4.93v13.4Z"/>
    <path class="cls-2" d="M140.87,5.11v1.89h.05c.6-1.52,2.07-2.15,3.61-2.15,1.2,0,2.57,.37,3.31,1.39,.8,1.1,.8,2.62,.8,4.01v8.26h-4.93V10.38c0-.81,0-1.94-1.07-1.94-1.37,0-1.49,1.23-1.49,2.33v7.73h-4.93V5.11h4.66"/>
    <path class="cls-2" d="M159.88,14.59c1.1,.05,2.27,.21,3.16,.92,.97,.76,1.47,2.07,1.47,3.33,0,1.91-1.22,3.12-2.84,3.69-1.37,.52-3.34,.58-4.83,.58-2.12,0-6.9-.16-6.9-3.3,0-1.28,.72-2.18,1.84-2.59-.7-.55-1.17-1.18-1.17-2.12,0-1.55,1.2-2.47,2.44-2.96-1.32-.58-2.07-1.55-2.07-3.09,0-3.46,3.64-4.19,6.23-4.19,.8,0,1.59,.05,2.37,.26,.27-1.94,1.2-3.15,3.16-3.15l1.44,.08,.32,.03-.12,3.59-1.22-.05c-.45,0-1.15,.03-1.39,.5,.87,.73,1.42,1.83,1.42,3.01,0,3.36-3.26,4.09-5.83,4.09l-.57-.03-.52-.03c-.42,0-1.25,0-1.25,.66s.92,.63,1.37,.63l3.49,.16m-4.56,3.72c-.57,0-1.25,.05-1.25,.84,0,.63,.47,.89,1,1,.8,.21,1.64,.24,2.47,.24,.75,0,2.59,.13,2.59-1.05,0-.89-.85-.84-1.47-.87l-2.44-.13-.9-.03Zm3.34-9.2c0-1.02-.5-1.68-1.52-1.68-.95,0-1.47,.68-1.47,1.65,0,1.07,.55,1.62,1.57,1.62,.92,0,1.42-.68,1.42-1.6Z"/>
    <polyline class="cls-2" points="47.98 43.62 35.15 43.62 35.15 25.64 47.98 25.64 47.98 29.78 40.28 29.78 40.28 32.4 46.51 32.4 46.51 36.41 40.28 36.41 40.28 39.32 47.98 39.32 47.98 43.62"/>
    <path class="cls-2" d="M54.75,30.23v1.89h.05c.6-1.52,2.07-2.15,3.61-2.15,1.2,0,2.57,.37,3.31,1.39,.8,1.1,.8,2.62,.8,4.01v8.26h-4.93v-8.13c0-.81,0-1.94-1.07-1.94-1.37,0-1.49,1.23-1.49,2.33v7.73h-4.93v-13.4h4.66"/>
    <path class="cls-2" d="M73.76,39.72c1.1,.05,2.27,.21,3.16,.92,.97,.76,1.47,2.07,1.47,3.33,0,1.91-1.22,3.12-2.84,3.7-1.37,.52-3.34,.58-4.83,.58-2.12,0-6.9-.16-6.9-3.3,0-1.28,.72-2.18,1.84-2.6-.7-.55-1.17-1.18-1.17-2.12,0-1.55,1.2-2.46,2.44-2.96-1.32-.58-2.07-1.55-2.07-3.09,0-3.46,3.64-4.19,6.23-4.19,.8,0,1.59,.05,2.37,.26,.27-1.94,1.2-3.15,3.16-3.15l1.44,.08,.32,.03-.12,3.59-1.22-.05c-.45,0-1.15,.03-1.4,.5,.87,.73,1.42,1.83,1.42,3.01,0,3.36-3.26,4.09-5.83,4.09l-.57-.03-.52-.03c-.42,0-1.25,0-1.25,.66s.92,.63,1.37,.63l3.49,.16m-4.56,3.72c-.57,0-1.25,.05-1.25,.84,0,.63,.47,.89,1,1,.8,.21,1.64,.24,2.47,.24,.75,0,2.59,.13,2.59-1.05,0-.89-.85-.84-1.47-.87l-2.44-.13-.9-.03Zm3.34-9.2c0-1.02-.5-1.68-1.52-1.68-.95,0-1.47,.68-1.47,1.65,0,1.08,.55,1.63,1.57,1.63,.92,0,1.42-.68,1.42-1.6Z"/>
    <path class="cls-2" d="M84.62,28.94h-4.93v-3.57h4.93v3.57Zm0,14.68h-4.93v-13.4h4.93v13.4Z"/>
    <path class="cls-2" d="M91.95,30.23v1.89h.05c.6-1.52,2.07-2.15,3.61-2.15,1.2,0,2.57,.37,3.31,1.39,.8,1.1,.8,2.62,.8,4.01v8.26h-4.93v-8.13c0-.81,0-1.94-1.07-1.94-1.37,0-1.49,1.23-1.49,2.33v7.73h-4.93v-13.4h4.66"/>
    <path class="cls-2" d="M115.34,39.14c-.77,3.25-3.51,4.75-6.53,4.75-1.87,0-3.69-.42-5.13-1.76-1.37-1.28-2.09-3.12-2.09-5.03,0-1.81,.67-3.78,1.87-5.06,1.3-1.42,3.24-2.07,5.06-2.07,4.23,0,6.83,2.88,6.83,7.29v.71h-8.52c-.08,1.44,.42,2.49,1.92,2.49,1.12,0,1.74-.47,1.94-1.63l4.66,.31m-4.98-3.8c0-1.31-.4-2.31-1.79-2.31-1.3,0-1.82,1.08-1.77,2.31h3.56Z"/>
    <path class="cls-2" d="M130.56,39.14c-.77,3.25-3.51,4.75-6.53,4.75-1.87,0-3.69-.42-5.13-1.76-1.37-1.28-2.09-3.12-2.09-5.03,0-1.81,.67-3.78,1.87-5.06,1.3-1.42,3.24-2.07,5.06-2.07,4.23,0,6.82,2.88,6.82,7.29v.71h-8.52c-.07,1.44,.42,2.49,1.92,2.49,1.12,0,1.74-.47,1.94-1.63l4.66,.31m-4.98-3.8c0-1.31-.4-2.31-1.79-2.31-1.3,0-1.82,1.08-1.77,2.31h3.56Z"/>
    <path class="cls-2" d="M136.69,32.98c.42-1.86,1.34-3.17,3.31-3.01l.67,.05v4.69c-.3-.08-.62-.13-.95-.13-.8,0-1.62,.16-2.02,.92-.35,.66-.35,1.52-.35,2.31v5.82h-4.93v-13.4h4.21v2.75h.05"/>
    <path class="cls-2" d="M145.48,39.27c.27,1.29,1.64,1.44,2.72,1.44,.5,0,1.89-.05,1.89-.84,0-.68-1.69-.81-2.14-.86-2.67-.39-5.83-.94-5.83-4.51,0-1.52,.77-2.73,1.97-3.51,1.25-.81,2.67-1.02,4.09-1.02,2.39,0,4.91,.97,5.75,3.49l-3.76,.76c-.37-.92-1.35-1.18-2.22-1.18-.4,0-1.59,.13-1.59,.71,0,.42,.42,.6,.75,.68,.55,.16,1.54,.23,2.14,.31,1.15,.16,2.44,.34,3.46,1,1.17,.79,1.79,1.97,1.79,3.41,0,3.7-3.71,4.75-6.58,4.75s-5.46-.97-6.4-4.06l3.96-.55"/>
    <polyline class="cls-2" points="176.1 43.62 164.12 43.62 164.12 25.64 169.4 25.64 169.4 39.22 176.1 39.22 176.1 43.62"/>
    <polyline class="cls-2" points="189.82 43.62 177.84 43.62 177.84 25.64 183.12 25.64 183.12 39.22 189.82 39.22 189.82 43.62"/>
    <path class="cls-2" d="M191.39,43.62V25.64h6.97c1.67,0,3.54,.05,5.01,.94,1.59,1,2.54,2.78,2.54,4.72,0,1.7-.62,3.33-1.89,4.4-1.32,1.13-3.01,1.39-4.66,1.39h-2.67v6.53m1.37-10.38c1.2,0,2.64-.08,2.64-1.76s-1.3-1.73-2.49-1.73h-1.52v3.49h1.37Z"/>
    <path class="cls-1" d="M.4,38.46h3.73v-.08C2.01,37.79-.18,36.61,.01,34.1l.08-.98H5.86c-.24,4.4,3.34,4.94,6.87,4.94h7.61v5.77H.4v-5.38"/>
    <path class="cls-1" d="M6.37,23.11c-1.88,.51-2.67,2-2.67,3.89,0,1.18,.31,2.98,1.77,2.98,3.73,0-.51-11.97,8.48-11.97,2.08,0,3.92,.98,5.14,2.67,1.25,1.81,1.65,4,1.65,6.2,0,4.16-1.41,8.04-5.89,9.1l-.71-4.98c2.04-.39,2.67-2.55,2.67-4.4,0-1.1-.39-3.49-1.88-3.49-1.33,0-1.57,1.18-1.69,2.24-.16,1.37-.75,4.67-1.18,5.93-.82,2.35-2.86,3.92-5.38,3.92C1.78,35.2,.01,30.92,.01,26.68c0-3.92,1.49-6.48,5.22-7.85l1.14,4.28"/>
    <path class="cls-1" d="M.4,12.64H3.35v-.08C1.15,11.5,.01,9.93,.01,7.38S1.19,2.83,3.47,1.49C5.58,.23,7.98,0,10.41,0c4.91,0,10.32,1.81,10.32,7.61,0,1.96-.82,3.77-2.59,4.59v.08h8.91v5.77H.4v-5.42m10.71-.35c1.26,0,2.94,.12,4.04-.55,.86-.55,1.49-1.57,1.49-2.59,0-2.98-4.36-3.1-6.4-3.1s-6.16,.16-6.16,3.06c0,1.14,.63,2.08,1.61,2.59,1.06,.59,2.28,.59,3.45,.59h1.96Z"/>
  </g>
</svg>