<?xml version="1.0" encoding="UTF-8"?>
<svg id="Layer_2" data-name="Layer 2" xmlns="http://www.w3.org/2000/svg" viewBox="0 0 18.97 18.97">
  <defs>
    <style>
      .cls-1 {
        fill: #fff;
      }

      .cls-2 {
        fill: #63686e;
        opacity: .41;
      }
    </style>
  </defs>
  <g id="Layer_1-2" data-name="Layer 1">
    <rect class="cls-2" x=".04" y=".04" width="18.88" height="18.88" transform="translate(-.04 18.92) rotate(-89.74)"/>
    <path class="cls-1" d="M14.66,6.29c-.38,.17-.79,.28-1.23,.33,.44-.26,.78-.68,.94-1.18-.41,.24-.87,.42-1.36,.51-.39-.42-.94-.68-1.55-.68-1.18,0-2.14,.95-2.14,2.12,0,.17,.02,.33,.05,.48-1.77-.1-3.34-.95-4.38-2.25-.19,.32-.29,.68-.29,1.07,0,.74,.37,1.39,.94,1.78-.35-.01-.68-.11-.97-.27,0,0,0,.02,0,.03,0,1.03,.73,1.9,1.7,2.1-.18,.05-.37,.07-.56,.07-.14,0-.27-.01-.4-.04,.27,.85,1.05,1.47,1.98,1.49-.73,.57-1.65,.9-2.65,.9-.17,0-.34-.01-.51-.03,.94,.61,2.06,.97,3.26,.97,3.92,.02,6.08-3.22,6.09-6.04,0-.09,0-.19,0-.28,.42-.3,.78-.67,1.07-1.1"/>
  </g>
</svg>