<?xml version="1.0" encoding="UTF-8"?><svg id="uuid-5d060833-056b-40a0-b41b-1f5b9dedaf3c" xmlns="http://www.w3.org/2000/svg" xmlns:xlink="http://www.w3.org/1999/xlink" viewBox="0 0 63.42 63.16"><defs><clipPath id="uuid-8d895d54-bda5-4ed4-bf63-e9257718b582"><rect width="63.42" height="63.16" style="fill:none;"/></clipPath></defs><g id="uuid-cb61fbe0-64c3-44aa-84a3-055228ac9153"><g style="clip-path:url(#uuid-8d895d54-bda5-4ed4-bf63-e9257718b582);"><path d="M63.34,29.32C62.17,13.68,49.68,1.24,33.97,.09,25.18-.57,16.52,2.48,10.1,8.49c-12.81,11.87-13.53,31.84-1.61,44.59,2.05,2.19,4.39,4.08,6.97,5.61,4.89,2.91,11.22,1.32,14.14-3.55,.95-1.59,1.46-3.41,1.46-5.27,0-3.27,.12-4.92,.71-6.49,3.88-.25,7.36-2.45,9.24-5.83,4.97-8.65,1.25-16.83-3.97-25.37,0,0-6.75,7.16-11.98,10.12-5.39,3.27-7.1,10.27-3.82,15.64,0,0,0,0,0,0,.87,1.42,2.05,2.63,3.46,3.54,1.11-4.78,2.78-9.41,4.98-13.79,.27-.51,.91-.69,1.41-.42,.51,.27,.7,.9,.42,1.41-.02,.03-.72,1.34-1.66,3.65-1.37,3.66-2.44,7.41-3.22,11.24,0,.01-.12,.66-.17,.96-.22,1.25-.32,2.52-.3,3.78,0,3.6-1.12,5.19-2.8,6.14-1.65,.95-3.69,.93-5.32-.06C5.38,46.9,1.23,30.6,8.77,17.99c1.3-2.17,2.9-4.14,4.75-5.86,5.41-5.06,12.71-7.63,20.11-7.08,14.69,1.04,25.76,13.74,24.72,28.37-.21,2.97-.92,5.88-2.1,8.61-3.72-2.18-8.45-1.59-11.5,1.45l-4.47,4.45,2.23,2.22-3.57,3.56c-.73,.75-.7,1.95,.06,2.67,.73,.7,1.89,.7,2.62,0l3.57-3.56,3.57,3.56-3.57,3.56c-.74,.74-.74,1.93,0,2.67,.74,.74,1.94,.74,2.68,0l3.57-3.56,2.23,2.22,4.47-4.45c2.87-2.86,3.59-7.23,1.78-10.86,2.64-5.13,3.82-10.89,3.41-16.64" style="fill:#5c9bd4;"/></g></g></svg>