<?xml version="1.0" encoding="UTF-8"?><svg id="uuid-e356464d-ccac-4e94-b355-c4b3bd16feb5" xmlns="http://www.w3.org/2000/svg" viewBox="0 0 38.22 49.48"><g id="uuid-ad92ce57-8776-4a27-9df6-d66383da0393"><path d="M34.52,45.77H3.7V7.42h6.78v3.71H27.74v-3.71h6.78V45.77h0ZM19.11,2.47c1.02,0,1.85,.83,1.85,1.86s-.83,1.86-1.85,1.86-1.85-.83-1.85-1.86c-.02-1.01,.78-1.84,1.79-1.86,.02,0,.04,0,.06,0m16.64,1.24h-10.48v-1.24c0-1.37-1.1-2.47-2.47-2.47h-7.4c-1.36,0-2.47,1.11-2.47,2.47v1.24H2.47c-1.36,0-2.47,1.11-2.47,2.47V47.01c0,1.37,1.1,2.47,2.47,2.47H35.75c1.36,0,2.47-1.11,2.47-2.47V6.19c0-1.37-1.1-2.47-2.47-2.47" style="fill:#72ae47;"/><polygon points="20.34 16.08 30.82 16.08 30.82 18.56 20.34 18.56 20.34 16.08 20.34 16.08" style="fill:#72ae47;"/><polygon points="20.34 23.5 30.82 23.5 30.82 25.98 20.34 25.98 20.34 23.5 20.34 23.5" style="fill:#72ae47;"/><polygon points="20.34 30.92 30.82 30.92 30.82 33.4 20.34 33.4 20.34 30.92 20.34 30.92" style="fill:#72ae47;"/><polygon points="20.34 38.35 30.82 38.35 30.82 40.82 20.34 40.82 20.34 38.35 20.34 38.35" style="fill:#72ae47;"/><polygon points="8.94 30 13.25 30 13.25 34.33 8.94 34.33 8.94 30 8.94 30" style="fill:#72ae47;"/><polygon points="8.94 37.42 13.25 37.42 13.25 41.75 8.94 41.75 8.94 37.42 8.94 37.42" style="fill:#72ae47;"/><polygon points="7.83 17.19 9.12 15.9 10.73 17.5 14.79 13.42 16.08 14.72 10.73 20.09 7.83 17.19 7.83 17.19" style="fill:#72ae47;"/><polygon points="7.83 24.61 9.12 23.32 10.73 24.93 14.79 20.84 16.08 22.14 10.73 27.52 7.83 24.61 7.83 24.61" style="fill:#72ae47;"/></g></svg>