<?xml version="1.0" encoding="UTF-8"?><svg id="uuid-50bf5b07-8f91-422d-a36b-7d1317572ed6" xmlns="http://www.w3.org/2000/svg" xmlns:xlink="http://www.w3.org/1999/xlink" viewBox="0 0 56.69 53.54"><defs><clipPath id="uuid-63380cce-24ed-4b46-af63-9e658338852b"><rect width="56.69" height="53.54" style="fill:none;"/></clipPath></defs><g id="uuid-c89dc30c-b432-4302-acef-1593c9f4316e"><g style="clip-path:url(#uuid-63380cce-24ed-4b46-af63-9e658338852b);"><path d="M28.55,53.36c3.66-2.88,7.15-5.96,10.46-9.23,4.79-4.55,9.03-9.64,12.63-15.17,3.34-5.35,6.53-12.3,4.33-18.65C54.19,5.06,49.25,.6,43.59,.06c-7.16-.71-12.34,5.33-15.27,11.1C25.64,5.87,21.21,.42,14.81,.02,9.13-.33,3.84,3.65,1.39,8.6c-3.06,6.21-.57,13.19,2.65,18.76,3.34,5.82,7.78,10.93,12.47,15.66,3.7,3.77,7.64,7.28,11.81,10.53l.23-.18h0ZM14.97,25.11l2.5-7.48,1.49-4.45c.38-1.16,.98-2.7,2.58-2.04,.97,.41,1.03,1.4,1.19,2.28l.69,3.68,2,10.64,1.33,7.06,4.84-12.75,1.07-2.81c.31-.83,.63-1.66,1.67-1.75,1.33-.13,1.72,1,2.01,1.99l1.03,3.51,2.04,6.97,2.01-2.2c.64-.84,1.37-1.61,2.16-2.31,.83-.58,2.38-.32,3.34-.32h3.1c-.62,1.11-1.3,2.22-2.04,3.32h-2.71c-1.78,1.95-3.48,4.03-5.37,5.88-.59,.7-1.64,.8-2.35,.21-.14-.12-.26-.25-.35-.41-.18-.36-.31-.74-.39-1.13l-1.39-4.74-1.13-3.89c-2.13,5.59-4.17,11.19-6.37,16.76-.12,.45-.39,.86-.76,1.15-.76,.52-1.8,.33-2.32-.43-.13-.19-.22-.41-.27-.64-.19-.76-.29-1.56-.44-2.33l-2.11-11.22-1.58-8.38-2.35,7.04c-.36,1.05-.64,2.07-1.99,2.14-1.23,.06-2.46,0-3.68,0h-3.76c-.73-1.11-1.43-2.22-2.04-3.32l8.37-.03h0Z" style="fill:#ee7e32;"/></g></g></svg>