<?xml version="1.0" encoding="UTF-8"?><svg id="uuid-23110f21-3bb6-45d9-bc1c-bd1ca3506de3" xmlns="http://www.w3.org/2000/svg" xmlns:xlink="http://www.w3.org/1999/xlink" viewBox="0 0 48.39 49.77"><defs><clipPath id="uuid-89065ca8-6435-4650-af31-f8d575698666"><rect width="48.39" height="49.77" style="fill:none;"/></clipPath></defs><g id="uuid-9ed3d64f-042c-46e0-b03e-745d1e1ff7b2"><g style="clip-path:url(#uuid-89065ca8-6435-4650-af31-f8d575698666);"><path d="M36.64,34.09c-.17,0-.32,.07-.45,.18-2.39,1.78-4.66,3.7-6.8,5.77-.86,.86-1.64,1.64-2.35,2.42-.78-1.47-1.19-3.11-1.19-4.77-.11-5.36,4.17-9.8,9.56-9.91,5.02,.13,12.98-2.14,12.98-2.14,0,8.72-.92,16.49-8.23,20.7-1.43,.86-3.07,1.31-4.75,1.31-2.3,0-4.51-.84-6.22-2.37-1.81,2.01-3.03,3.72-3.03,4.5h-2.01c0-1.2,1.01-2.9,2.56-4.79,.17-.21,.55-.62,.55-.62l10.1-9.54c.02-.39-.28-.72-.66-.74-.02,0-.03,0-.05,0" style="fill:#94c354;"/><path d="M5.34,39.19c.47,.9,1.37,1.5,2.38,1.59h11.19v4.95H7.73c-2.84-.05-5.43-1.6-6.81-4.07-1.32-2.38-1.21-5.3,.3-7.57l6.47-11.15-4.27-2.48,10.41-2.77,2.79,10.37-4.53-2.59-6.49,11.21c-.55,.72-.65,1.7-.24,2.51" style="fill:#94c354;"/><path d="M14.14,13.62L19.35,3.94C20.72,1.49,23.31-.02,26.12,0c2.73,.06,5.21,1.62,6.43,4.05l6.47,11.15,4.27-2.48-2.79,10.4-10.39-2.77,4.53-2.61-6.52-11.22c-.35-.84-1.15-1.4-2.06-1.46-.96,.05-1.83,.58-2.3,1.41l-5.21,9.68-4.4-2.53h0Z" style="fill:#94c354;"/></g></g></svg>