<?xml version="1.0" encoding="UTF-8"?><svg id="uuid-0ff96981-9a08-47d4-8d8e-c7b05d1e64a6" xmlns="http://www.w3.org/2000/svg" viewBox="0 0 56.83 56.5"><g id="uuid-aa7fc1a2-09f4-456e-b9d1-6d8633812338"><path d="M28.37,38.22c-13.09-.09-13.09-19.86,0-19.94,13.09,.09,13.09,19.86,0,19.94m22.53-16.2c-.5-1.83-1.25-3.57-2.17-5.15l2.09-6.23-4.76-4.74-6.26,2.08c-1.67-.91-3.42-1.66-5.26-2.16L31.71,0h-6.68l-2.92,5.82c-1.84,.5-3.59,1.25-5.17,2.16l-6.26-2.08-4.76,4.74,2.09,6.23c-.92,1.66-1.67,3.41-2.17,5.23L0,24.93v6.65l5.84,2.91c.5,1.83,1.25,3.57,2.17,5.15l-2.09,6.23,4.76,4.74,6.26-2.08c1.67,.91,3.42,1.66,5.26,2.16l2.92,5.82h6.68l2.92-5.82c1.84-.5,3.59-1.25,5.17-2.16l6.26,2.08,4.76-4.74-2.09-6.23c.92-1.66,1.67-3.41,2.17-5.24l5.84-2.91v-6.65l-5.92-2.83h0Z" style="fill:#e31e3e;"/></g></svg>